<svg width="32" height="32" viewBox="0 0 32 32" fill="none" xmlns="http://www.w3.org/2000/svg">
<path d="M31.8438 22.7853L29.9062 23.6398C30.0312 24.3323 30.0312 25.0136 29.9062 25.6838L31.8438 26.5382L31.0781 28.5319L29.1406 27.6607C28.9635 27.94 28.7656 28.2024 28.5469 28.4482C28.3281 28.6939 28.0781 28.9117 27.7969 29.1016L28.6094 31.1791L26.75 32L25.9531 29.9225C25.6406 29.9895 25.3229 30.023 25 30.023C24.6771 30.023 24.3594 29.9895 24.0469 29.9225L23.25 32L21.3906 31.1791L22.2031 29.1016C21.6719 28.7106 21.224 28.2304 20.8594 27.6607L18.9219 28.5319L18.1562 26.5382L20.0938 25.6838C19.9688 25.0024 19.9688 24.3211 20.0938 23.6398L18.1562 22.7853L18.9219 20.7916L20.8594 21.6628C21.224 21.0932 21.6719 20.6129 22.2031 20.222L21.3906 18.1445L23.25 17.3236L24.0469 19.401C24.6927 19.267 25.3281 19.267 25.9531 19.401L26.75 17.3236L28.6094 18.1445L27.7969 20.222C28.0573 20.4119 28.3021 20.6241 28.5312 20.8586C28.7604 21.0932 28.9635 21.3613 29.1406 21.6628L31.0781 20.7916L31.8438 22.7853ZM26.1406 27.6272C26.526 27.4597 26.8542 27.2251 27.125 26.9236C27.3958 26.622 27.6094 26.2757 27.7656 25.8848C27.9219 25.4939 27.9948 25.0918 27.9844 24.6785C27.974 24.2653 27.901 23.852 27.7656 23.4387C27.6198 23.0366 27.4062 22.6848 27.125 22.3832C26.8438 22.0817 26.5156 21.8527 26.1406 21.6963C25.776 21.5288 25.3958 21.445 25 21.445C24.5938 21.445 24.2135 21.5288 23.8594 21.6963C23.4844 21.8527 23.1562 22.0817 22.875 22.3832C22.5938 22.6848 22.3802 23.0366 22.2344 23.4387C21.9115 24.2541 21.9115 25.0695 22.2344 25.8848C22.3802 26.2869 22.5938 26.6387 22.875 26.9403C23.1562 27.2419 23.4844 27.4709 23.8594 27.6272C24.6198 27.9735 25.3802 27.9735 26.1406 27.6272ZM32 0V15.0115H30V8.57801H2V25.734H16V27.8785H0V0H32ZM30 6.43351V2.1445H2V6.43351H30ZM14 21.445V19.0995C13.6771 18.9766 13.3646 18.7867 13.0625 18.5298L11.1719 19.6859L10.1719 17.8429L12.0469 16.6702C12.0156 16.4914 12 16.296 12 16.0838C12 15.8827 12.0156 15.6873 12.0469 15.4974L10.1719 14.3246L11.1719 12.4817L13.0625 13.6377C13.3646 13.3808 13.6771 13.1909 14 13.0681V10.7225H16V13.0681C16.1771 13.1351 16.3385 13.2133 16.4844 13.3026C16.6302 13.392 16.7812 13.5037 16.9375 13.6377L18.8281 12.4817L19.8281 14.3246L17.9531 15.4974C17.9844 15.6873 18 15.8827 18 16.0838C18 16.296 17.9844 16.4914 17.9531 16.6702L19.8281 17.8429L18.8281 19.6859L16.9375 18.5298C16.7917 18.6527 16.6458 18.7588 16.5 18.8482C16.3542 18.9375 16.1875 19.0213 16 19.0995V21.445H14ZM13.5 16.0838C13.5 16.5305 13.6458 16.9103 13.9375 17.223C14.2292 17.5358 14.5833 17.6921 15 17.6921C15.4167 17.6921 15.7708 17.5358 16.0625 17.223C16.3542 16.9103 16.5 16.5305 16.5 16.0838C16.5 15.637 16.3542 15.2572 16.0625 14.9445C15.7708 14.6318 15.4167 14.4754 15 14.4754C14.5833 14.4754 14.2292 14.6318 13.9375 14.9445C13.6458 15.2572 13.5 15.637 13.5 16.0838Z" fill="black"/>
</svg>
